<svg xmlns="http://www.w3.org/2000/svg" xmlns:xlink="http://www.w3.org/1999/xlink" version="1.1" x="0px" y="0px" viewBox="0 0 32 40" style="enable-background:new 0 0 32 32;" xml:space="preserve"><g><path d="M21.4883,28.6182c-3.3242,0-6.0283-2.7041-6.0283-6.0283c0-3.3232,2.7041-6.0273,6.0283-6.0273   c3.3232,0,6.0273,2.7041,6.0273,6.0273C27.5156,25.9141,24.8115,28.6182,21.4883,28.6182z M21.4883,17.5625   c-2.7725,0-5.0283,2.2549-5.0283,5.0273s2.2559,5.0283,5.0283,5.0283s5.0273-2.2559,5.0273-5.0283S24.2607,17.5625,21.4883,17.5625   z"/></g><g><path d="M21.4883,24.0117c-0.7842,0-1.4219-0.6377-1.4219-1.4219c0-0.7832,0.6377-1.4209,1.4219-1.4209   c0.7832,0,1.4209,0.6377,1.4209,1.4209C22.9092,23.374,22.2715,24.0117,21.4883,24.0117z M21.4883,22.1689   c-0.2324,0-0.4219,0.1885-0.4219,0.4209s0.1895,0.4219,0.4219,0.4219s0.4209-0.1895,0.4209-0.4219S21.7207,22.1689,21.4883,22.1689   z"/></g><g><path d="M21.4883,20.7871c-0.7842,0-1.4219-0.6377-1.4219-1.4219c0-0.7832,0.6377-1.4209,1.4219-1.4209   c0.7832,0,1.4209,0.6377,1.4209,1.4209C22.9092,20.1494,22.2715,20.7871,21.4883,20.7871z M21.4883,18.9443   c-0.2324,0-0.4219,0.1885-0.4219,0.4209s0.1895,0.4219,0.4219,0.4219s0.4209-0.1895,0.4209-0.4219S21.7207,18.9443,21.4883,18.9443   z"/></g><g><path d="M21.4883,27.2363c-0.7842,0-1.4219-0.6377-1.4219-1.4219c0-0.7832,0.6377-1.4209,1.4219-1.4209   c0.7832,0,1.4209,0.6377,1.4209,1.4209C22.9092,26.5986,22.2715,27.2363,21.4883,27.2363z M21.4883,25.3936   c-0.2324,0-0.4219,0.1885-0.4219,0.4209s0.1895,0.4219,0.4219,0.4219s0.4209-0.1895,0.4209-0.4219S21.7207,25.3936,21.4883,25.3936   z"/></g><g><path d="M24.7129,23.5508c-0.7842,0-1.4219-0.6377-1.4219-1.4209c0-0.7842,0.6377-1.4219,1.4219-1.4219   c0.7832,0,1.4209,0.6377,1.4209,1.4219C26.1338,22.9131,25.4961,23.5508,24.7129,23.5508z M24.7129,21.708   c-0.2324,0-0.4219,0.1895-0.4219,0.4219s0.1895,0.4209,0.4219,0.4209s0.4209-0.1885,0.4209-0.4209S24.9453,21.708,24.7129,21.708z"/></g><g><path d="M18.2637,23.5508c-0.7842,0-1.4219-0.6377-1.4219-1.4209c0-0.7842,0.6377-1.4219,1.4219-1.4219   c0.7832,0,1.4209,0.6377,1.4209,1.4219C19.6846,22.9131,19.0469,23.5508,18.2637,23.5508z M18.2637,21.708   c-0.2324,0-0.4219,0.1895-0.4219,0.4219s0.1895,0.4209,0.4219,0.4209s0.4209-0.1885,0.4209-0.4209S18.4961,21.708,18.2637,21.708z"/></g><path d="M29.5361,26.2373c-0.0117,0.001-0.3154,0.0244-0.6387,0.001c-0.5283-0.0498-0.8594,0.5547-1.1621,1.4717  c-0.0566,0.1729-0.2168,0.2891-0.3994,0.2891h-0.8003c1.4492-1.3535,2.3618-3.2745,2.3618-5.4092  c0-4.085-3.3242-7.4092-7.4092-7.4092c-4.0859,0-7.4102,3.3242-7.4102,7.4092c0,4.0859,3.3242,7.4102,7.4102,7.4102  c1.3489,0,2.611-0.3683,3.7017-1.001h2.146c0.6162,0,1.1582-0.3936,1.3496-0.9775c0.1494-0.4512,0.2588-0.6729,0.3203-0.7764  c0.3312,0.0136,0.6129-0.0116,0.6143-0.0117C30.2629,27.1757,30.1822,26.1988,29.5361,26.2373z M15.0781,22.5898  c0-3.5342,2.876-6.4092,6.4102-6.4092s6.4092,2.875,6.4092,6.4092S25.0225,29,21.4883,29S15.0781,26.124,15.0781,22.5898z"/><path d="M24.5,6H23V4.5C23,4.2236,22.7764,4,22.5,4H21V2.5C21,2.2236,20.7764,2,20.5,2h-18C2.2236,2,2,2.2236,2,2.5v23  C2,25.7764,2.2236,26,2.5,26H4v1.5C4,27.7764,4.2236,28,4.5,28H6v1.5C6,29.7764,6.2236,30,6.5,30c0,0,8.9536,0,8.9998,0  c0.645,0,0.6493-1,0.0002-1H7V7h17c0,0,0,7.481,0,7.5c0,0.6285,1,0.652,1,0v-8C25,6.2236,24.7764,6,24.5,6z M3,25V3h17v1H4.5  C4.2236,4,4,4.2236,4,4.5V25H3z M6.5,6C6.2236,6,6,6.2236,6,6.5V27H5V5h17v1H6.5z"/><g><path d="M20.5,9h-10C10.2236,9,10,8.7764,10,8.5S10.2236,8,10.5,8h10C20.7764,8,21,8.2236,21,8.5S20.7764,9,20.5,9z"/></g><g><path d="M20.5,11h-10c-0.2764,0-0.5-0.2236-0.5-0.5s0.2236-0.5,0.5-0.5h10c0.2764,0,0.5,0.2236,0.5,0.5S20.7764,11,20.5,11z"/></g><g><path d="M20.5,13h-10c-0.2764,0-0.5-0.2236-0.5-0.5s0.2236-0.5,0.5-0.5h10c0.2764,0,0.5,0.2236,0.5,0.5S20.7764,13,20.5,13z"/></g><g><path d="M17.7598,15H8.5C8.2236,15,8,14.7764,8,14.5S8.2236,14,8.5,14h9.2598c0.2764,0,0.5,0.2236,0.5,0.5S18.0361,15,17.7598,15z"/></g><g><path d="M14.9902,17H8.5C8.2236,17,8,16.7764,8,16.5S8.2236,16,8.5,16h6.4902c0.2764,0,0.5,0.2236,0.5,0.5S15.2666,17,14.9902,17z"/></g><g><path d="M12.8301,21H8.5C8.2236,21,8,20.7764,8,20.5S8.2236,20,8.5,20h4.3301c0.2764,0,0.5,0.2236,0.5,0.5S13.1064,21,12.8301,21z"/></g><g><path d="M12.79,25H8.5C8.2236,25,8,24.7764,8,24.5S8.2236,24,8.5,24h4.29c0.2764,0,0.5,0.2236,0.5,0.5S13.0664,25,12.79,25z"/></g><g><path d="M12.5801,23H8.5C8.2236,23,8,22.7764,8,22.5S8.2236,22,8.5,22h4.0801c0.2764,0,0.5,0.2236,0.5,0.5S12.8564,23,12.5801,23z"/></g><text x="0" y="47" fill="#000000" font-size="5px" font-weight="bold" font-family="'Helvetica Neue', Helvetica, Arial-Unicode, Arial, Sans-serif">Created by DARAYANI</text><text x="0" y="52" fill="#000000" font-size="5px" font-weight="bold" font-family="'Helvetica Neue', Helvetica, Arial-Unicode, Arial, Sans-serif">from the Noun Project</text></svg>